<svg width="20" height="20" viewBox="0 0 20 20" fill="none" xmlns="http://www.w3.org/2000/svg">
<path fill-rule="evenodd" clip-rule="evenodd" d="M6.22083 0.888374C7.19833 0.843374 7.51 0.833374 10 0.833374C12.49 0.833374 12.8017 0.844207 13.7783 0.888374C14.755 0.932541 15.4217 1.08837 16.005 1.31421C16.6158 1.54504 17.17 1.90587 17.6283 2.37254C18.095 2.83004 18.455 3.38337 18.685 3.99504C18.9117 4.57837 19.0667 5.24504 19.1117 6.22004C19.1567 7.19921 19.1667 7.51087 19.1667 10C19.1667 12.49 19.1558 12.8017 19.1117 13.7792C19.0675 14.7542 18.9117 15.4209 18.685 16.0042C18.455 16.616 18.0944 17.1702 17.6283 17.6284C17.17 18.095 16.6158 18.455 16.005 18.685C15.4217 18.9117 14.755 19.0667 13.78 19.1117C12.8017 19.1567 12.49 19.1667 10 19.1667C7.51 19.1667 7.19833 19.1559 6.22083 19.1117C5.24583 19.0675 4.57916 18.9117 3.99583 18.685C3.3841 18.455 2.82985 18.0944 2.37167 17.6284C1.90532 17.1706 1.54443 16.6166 1.31417 16.005C1.08833 15.4217 0.933332 14.755 0.888332 13.78C0.843332 12.8009 0.833332 12.4892 0.833332 10C0.833332 7.51004 0.844165 7.19837 0.888332 6.22171C0.932499 5.24504 1.08833 4.57837 1.31417 3.99504C1.54477 3.38344 1.90593 2.82947 2.3725 2.37171C2.83003 1.90546 3.38373 1.54458 3.995 1.31421C4.57833 1.08837 5.245 0.933374 6.22 0.888374H6.22083ZM13.7042 2.53837C12.7375 2.49421 12.4475 2.48504 10 2.48504C7.5525 2.48504 7.2625 2.49421 6.29583 2.53837C5.40166 2.57921 4.91667 2.72837 4.59333 2.85421C4.16583 3.02087 3.86 3.21837 3.53917 3.53921C3.23504 3.83508 3.00098 4.19528 2.85417 4.59337C2.72833 4.91671 2.57917 5.40171 2.53833 6.29587C2.49417 7.26254 2.485 7.55254 2.485 10C2.485 12.4475 2.49417 12.7375 2.53833 13.7042C2.57917 14.5984 2.72833 15.0834 2.85417 15.4067C3.00083 15.8042 3.235 16.165 3.53917 16.4609C3.835 16.765 4.19583 16.9992 4.59333 17.1459C4.91667 17.2717 5.40166 17.4209 6.29583 17.4617C7.2625 17.5059 7.55166 17.515 10 17.515C12.4483 17.515 12.7375 17.5059 13.7042 17.4617C14.5983 17.4209 15.0833 17.2717 15.4067 17.1459C15.8342 16.9792 16.14 16.7817 16.4608 16.4609C16.765 16.165 16.9992 15.8042 17.1458 15.4067C17.2717 15.0834 17.4208 14.5984 17.4617 13.7042C17.5058 12.7375 17.515 12.4475 17.515 10C17.515 7.55254 17.5058 7.26254 17.4617 6.29587C17.4208 5.40171 17.2717 4.91671 17.1458 4.59337C16.9792 4.16587 16.7817 3.86004 16.4608 3.53921C16.1649 3.2351 15.8048 3.00105 15.4067 2.85421C15.0833 2.72837 14.5983 2.57921 13.7042 2.53837ZM8.82916 12.8259C9.48305 13.0981 10.2111 13.1348 10.8891 12.9298C11.5671 12.7248 12.1528 12.2908 12.5463 11.7019C12.9399 11.113 13.1167 10.4058 13.0467 9.70096C12.9767 8.99616 12.6642 8.33752 12.1625 7.83754C11.8427 7.51794 11.456 7.27322 11.0303 7.121C10.6045 6.96877 10.1504 6.91284 9.70041 6.95722C9.25047 7.0016 8.81596 7.14519 8.42817 7.37765C8.04038 7.61011 7.70895 7.92566 7.45775 8.30158C7.20655 8.67751 7.04182 9.10445 6.97543 9.55167C6.90903 9.9989 6.94262 10.4553 7.07378 10.888C7.20494 11.3207 7.4304 11.7189 7.73393 12.054C8.03746 12.3891 8.41152 12.6527 8.82916 12.8259ZM6.66833 6.66837C7.10585 6.23085 7.62526 5.88379 8.19691 5.64701C8.76856 5.41022 9.38125 5.28835 10 5.28835C10.6187 5.28835 11.2314 5.41022 11.8031 5.64701C12.3747 5.88379 12.8941 6.23085 13.3317 6.66837C13.7692 7.10589 14.1162 7.62531 14.353 8.19696C14.5898 8.7686 14.7117 9.38129 14.7117 10C14.7117 10.6188 14.5898 11.2315 14.353 11.8031C14.1162 12.3748 13.7692 12.8942 13.3317 13.3317C12.4481 14.2153 11.2496 14.7117 10 14.7117C8.75038 14.7117 7.55194 14.2153 6.66833 13.3317C5.78472 12.4481 5.28831 11.2497 5.28831 10C5.28831 8.75042 5.78472 7.55199 6.66833 6.66837ZM15.7567 5.99004C15.8651 5.88776 15.9519 5.76477 16.0119 5.62835C16.072 5.49193 16.104 5.34485 16.1062 5.19582C16.1084 5.04678 16.0806 4.89883 16.0246 4.76072C15.9685 4.6226 15.8854 4.49713 15.78 4.39174C15.6746 4.28635 15.5491 4.20317 15.411 4.14714C15.2729 4.09111 15.1249 4.06335 14.9759 4.06553C14.8269 4.0677 14.6798 4.09975 14.5434 4.15979C14.4069 4.21982 14.2839 4.30662 14.1817 4.41504C13.9828 4.6259 13.8739 4.90597 13.8781 5.19582C13.8823 5.48566 13.9993 5.76244 14.2043 5.96741C14.4093 6.17238 14.686 6.2894 14.9759 6.29362C15.2657 6.29785 15.5458 6.18895 15.7567 5.99004Z" fill="#87A2B1"/>
</svg>
