<svg width="20" height="20" viewBox="0 0 20 20" fill="none" xmlns="http://www.w3.org/2000/svg">
<g clip-path="url(#clip0_5_401)">
<path d="M11.25 0H13.725C13.905 0.89375 14.4 2.02125 15.2688 3.14C16.1188 4.23625 17.2463 5 18.75 5V7.5C16.5588 7.5 14.9125 6.4825 13.75 5.21375V13.75C13.75 14.9861 13.3834 16.1945 12.6967 17.2223C12.0099 18.2501 11.0338 19.0512 9.89178 19.5242C8.74974 19.9973 7.49307 20.1211 6.28069 19.8799C5.06831 19.6388 3.95466 19.0435 3.08059 18.1694C2.20651 17.2953 1.61125 16.1817 1.37009 14.9693C1.12894 13.7569 1.25271 12.5003 1.72576 11.3582C2.1988 10.2162 2.99988 9.24007 4.02769 8.55332C5.0555 7.86656 6.26387 7.5 7.5 7.5V10C6.75832 10 6.0333 10.2199 5.41661 10.632C4.79993 11.044 4.31928 11.6297 4.03545 12.3149C3.75163 13.0002 3.67736 13.7542 3.82206 14.4816C3.96675 15.209 4.32391 15.8772 4.84835 16.4017C5.3728 16.9261 6.04099 17.2833 6.76841 17.4279C7.49584 17.5726 8.24984 17.4984 8.93507 17.2145C9.62029 16.9307 10.206 16.4501 10.618 15.8334C11.0301 15.2167 11.25 14.4917 11.25 13.75V0Z" fill="#87A2B1"/>
</g>
<defs>
<clipPath id="clip0_5_401">
<rect width="20" height="20" fill="white"/>
</clipPath>
</defs>
</svg>
