<svg width="231" height="40" viewBox="0 0 231 40" fill="none" xmlns="http://www.w3.org/2000/svg">
<path d="M36.6619 16.922C36.0539 13.7166 34.7023 10.7006 32.7169 8.11888C34.9591 5.42211 37.651 3.13805 40.6722 1.36888C51.6773 26.6814 31.5044 38.3345 31.5044 38.3345H31.1594C36.0184 32.7376 37.9209 25.3689 36.6619 16.922Z" fill="#FF93C7"/>
<path d="M5.22271 25.2181C9.94591 25.3844 14.5633 26.6692 18.6992 28.9681C18.0934 27.7567 17.6272 26.4796 17.3096 25.1619C15.4444 17.3712 18.0278 7.6681 20.7697 0.280602C24.6961 1.64935 28.9116 5.16498 31.8121 9.2431C33.5649 11.5652 34.7588 14.2638 35.3001 17.1275C36.7364 26.7181 33.8638 33.665 29.2007 38.4369L28.9955 38.6525C28.9955 38.6525 19.2961 40.3119 11.7138 36.7494C2.93776 32.6056 0.746078 25.6962 0.746078 25.6962C2.20901 25.3289 3.71566 25.168 5.22271 25.2181Z" fill="#419FB9"/>
<path d="M31.8122 9.24318L31.6537 9.01818C27.0654 15.3544 24.6469 23.0163 24.7615 30.8526C24.7584 33.5928 25.0365 36.326 25.5916 39.0088C26.7312 38.9597 27.8675 38.8502 28.9957 38.6807C29.0703 38.6151 29.1356 38.5307 29.2102 38.4557C33.8733 33.6651 36.7365 26.7182 35.3003 17.1276C34.7589 14.2639 33.565 11.5653 31.8122 9.24318Z" fill="#265E6C"/>
<path d="M68.2872 29.488L67.1501 17.6303L63.2363 29.488H59.4996L55.4089 17.4775L54.4238 29.488H50.687L52.7074 11.4857C53.2384 11.2071 54.0966 10.9518 54.7027 10.9518C56.1169 10.9518 57.1771 11.3833 57.6062 12.6525L61.8239 25.2975L66.1417 11.5361C66.6727 11.1801 67.3789 10.9518 68.0601 10.9518C69.4994 10.9518 70.2056 11.4588 70.4344 13.2619L72.4548 29.4862H68.2872V29.488Z" fill="#419FB9"/>
<path d="M84.4215 25.7815L85.9608 28.2444C84.3946 29.2349 82.6532 29.7419 80.5328 29.7419C76.5172 29.7419 74.1446 27.3797 74.1446 23.369C74.1446 19.0023 76.6441 16.3867 80.9118 16.3867C84.1193 16.3867 85.9877 18.0118 85.9877 20.6778C85.9877 23.2431 83.6401 24.7658 79.7247 24.7658C79.1686 24.7658 78.6144 24.7155 78.0583 24.6633C78.3355 26.0098 79.1686 26.7954 80.8099 26.7954C82.2492 26.7972 83.4095 26.4413 84.4215 25.7815ZM77.9814 22.4558C78.5625 22.5061 79.1436 22.5313 79.6728 22.5313C81.2891 22.5313 82.1973 21.9218 82.1973 20.8558C82.1973 19.9929 81.5912 19.4338 80.531 19.4338C79.1168 19.4338 78.1835 20.5502 77.9814 22.4558Z" fill="#419FB9"/>
<path d="M88.838 35.5824L87.0948 32.7636C87.8529 32.4849 88.4072 31.6472 88.4072 30.0472V16.6417H92.3209V30.7591C92.3227 33.5258 90.8083 34.8201 88.838 35.5824ZM90.3542 14.6606C91.6933 14.6606 92.5265 13.8984 92.5265 12.5537C92.5265 11.2342 91.6933 10.4972 90.3542 10.4972C89.015 10.4972 88.1819 11.2342 88.1819 12.5537C88.1819 13.8984 89.015 14.6606 90.3542 14.6606Z" fill="#419FB9"/>
<path d="M94.2885 23.0651C94.2885 18.8765 96.7879 16.3867 101.081 16.3867C105.373 16.3867 107.9 18.8747 107.9 23.0651C107.9 27.2556 105.375 29.7436 101.081 29.7436C96.7862 29.7436 94.2885 27.2538 94.2885 23.0651ZM103.934 23.0651C103.934 20.8306 102.874 19.4859 101.106 19.4859C99.3375 19.4859 98.2773 20.8324 98.2773 23.0651C98.2773 25.2997 99.3375 26.6192 101.106 26.6192C102.874 26.6192 103.934 25.2997 103.934 23.0651Z" fill="#419FB9"/>
<path d="M119.053 16.8181L117.916 20.2967C117.487 20.018 116.931 19.8401 116.325 19.8401C114.709 19.8401 113.699 20.9313 113.699 24.106V29.4884H109.785V16.9206C110.466 16.615 111.199 16.3867 111.88 16.3867C112.941 16.3867 113.572 17.2999 113.572 18.6212C114.507 16.9709 115.794 16.3867 117.106 16.3867C117.789 16.3867 118.472 16.5646 119.053 16.8181Z" fill="#419FB9"/>
<path d="M126.934 29.7444C122.794 29.7444 120.317 27.2564 120.317 23.0407C120.317 18.852 123.046 16.3892 126.605 16.3892C128.172 16.3892 130.696 17.0238 131.504 19.9954L128.651 21.1387C128.322 20.1482 127.716 19.4884 126.807 19.4884C125.216 19.4884 124.283 20.8098 124.283 23.0425C124.283 25.3022 125.42 26.6218 127.262 26.6218C128.449 26.6218 129.813 26.1903 130.696 25.5306L131.933 28.2721C130.546 29.2878 128.678 29.7444 126.934 29.7444Z" fill="#265E6C"/>
<path d="M132.459 23.0634C132.459 18.8747 134.958 16.3849 139.251 16.3849C143.544 16.3849 146.07 18.8729 146.07 23.0634C146.07 27.2538 143.544 29.7419 139.251 29.7419C134.958 29.7419 132.459 27.252 132.459 23.0634ZM142.105 23.0634C142.105 20.8288 141.044 19.4842 139.276 19.4842C137.508 19.4842 136.448 20.8306 136.448 23.0634C136.448 25.2979 137.508 26.6175 139.276 26.6175C141.044 26.6175 142.105 25.2979 142.105 23.0634Z" fill="#265E6C"/>
<path d="M160.354 21.21V29.4866H156.44V21.8949C156.44 20.4226 155.809 19.4824 154.622 19.4824C152.93 19.4824 151.87 20.3956 151.87 23.0886V29.4866H147.956V16.9188C148.638 16.6132 149.371 16.3849 150.052 16.3849C151.062 16.3849 151.693 17.2226 151.743 18.4667C152.828 16.917 154.32 16.3849 155.884 16.3849C158.712 16.3849 160.354 18.1628 160.354 21.21Z" fill="#265E6C"/>
<path d="M175.467 12.7304L173.75 15.524C172.665 14.7618 171.174 14.2045 169.685 14.2045C168.295 14.2045 167.462 14.8139 167.462 15.7793C167.462 17.0736 168.927 17.5824 170.695 18.217C173.094 19.0799 175.923 20.1729 175.923 23.8276C175.923 27.5848 173.346 29.7439 168.978 29.7439C166.579 29.7439 164.357 29.0589 162.74 27.8401L164.028 24.9458C165.265 25.9111 167.058 26.4954 169.179 26.4954C170.82 26.4954 171.78 25.8105 171.78 24.6671C171.78 23.22 170.316 22.6861 168.623 22.1036C166.223 21.2659 163.32 20.225 163.32 16.3653C163.32 12.8616 165.667 10.9578 169.608 10.9578C171.603 10.9542 173.724 11.5385 175.467 12.7304Z" fill="#FF93C7"/>
<path d="M189.051 21.2138V29.2118C188.37 29.5156 187.662 29.7458 186.955 29.7458C185.97 29.7458 185.339 28.9332 185.264 27.7647C184.229 29.237 182.84 29.7458 181.45 29.7458C178.901 29.7458 177.36 28.2483 177.36 25.8106C177.36 23.1194 179.607 21.5446 183.573 21.5446C184.077 21.5446 184.608 21.5446 185.139 21.5697C185.064 20.1729 184.558 19.3352 182.916 19.3352C181.806 19.3352 180.669 19.6911 179.659 20.3509L178.093 17.9132C179.709 16.9227 181.452 16.3905 183.573 16.3905C187.03 16.3887 189.051 18.1667 189.051 21.2138ZM185.135 23.8277C184.604 23.8025 184.125 23.8025 183.671 23.8025C182.005 23.8025 181.07 24.4119 181.07 25.4528C181.07 26.2654 181.524 26.8496 182.534 26.8496C183.873 26.8496 185.135 26.0119 185.135 23.8277Z" fill="#FF93C7"/>
<path d="M191.801 26.0115V10.2187C192.482 9.91484 193.215 9.68473 193.896 9.68473C195.058 9.68473 195.714 10.447 195.714 11.513V25.6808C195.714 26.2902 196.043 26.621 196.623 26.621C197.027 26.621 197.406 26.5455 197.708 26.443L198.214 28.931C197.356 29.4901 196.471 29.7436 195.385 29.7436C193.14 29.7436 191.801 28.3989 191.801 26.0115Z" fill="#FF93C7"/>
<path d="M213.255 18.2167V29.2115C212.574 29.5153 211.841 29.7454 211.16 29.7454C210.15 29.7454 209.544 28.9076 209.469 27.714C208.459 29.2115 207.044 29.7454 205.58 29.7454C202.752 29.7454 201.11 27.9674 201.11 24.9203V16.9223C201.792 16.6167 202.525 16.3884 203.206 16.3884C204.368 16.3884 205.024 17.1506 205.024 18.2167V24.2084C205.024 25.7059 205.655 26.621 206.842 26.621C208.409 26.621 209.342 25.7077 209.342 23.0669V16.9223C210.023 16.6167 210.756 16.3884 211.437 16.3884C212.599 16.3884 213.255 17.1506 213.255 18.2167Z" fill="#FF93C7"/>
<path d="M228.457 11.5127V29.2094C227.775 29.5132 227.042 29.7433 226.361 29.7433C225.376 29.7433 224.745 28.9055 224.67 27.737C223.585 29.2345 222.043 29.7433 220.504 29.7433C217.549 29.7433 215.605 27.4332 215.605 23.4962C215.605 19.002 218.232 16.3863 222.676 16.3863C223.155 16.3863 223.813 16.4114 224.545 16.4366V10.2165C225.226 9.91272 225.959 9.68262 226.64 9.68262C227.799 9.68441 228.457 10.4466 228.457 11.5127ZM224.541 19.3327C223.96 19.3076 223.456 19.3076 223.027 19.3076C220.906 19.3076 219.567 20.8572 219.567 23.4962C219.567 25.4773 220.425 26.644 221.966 26.644C223.483 26.644 224.543 25.756 224.543 23.063V19.3327H224.541Z" fill="#FF93C7"/>
</svg>
